{"asset":{"version":"2.0","generator":"Blockbench 4.12.4 glTF exporter"},"scenes":[{"nodes":[2],"name":"blockbench_export"}],"scene":0,"nodes":[{"name":"beveled_cuboid","mesh":0},{"name":"cuboid","mesh":1},{"children":[0,1]}],"bufferViews":[{"buffer":0,"byteOffset":0,"byteLength":5088,"target":34962,"byteStride":12},{"buffer":0,"byteOffset":5088,"byteLength":5088,"target":34962,"byteStride":12},{"buffer":0,"byteOffset":10176,"byteLength":3392,"target":34962,"byteStride":8},{"buffer":0,"byteOffset":13568,"byteLength":1176,"target":34963},{"buffer":0,"byteOffset":14744,"byteLength":288,"target":34962,"byteStride":12},{"buffer":0,"byteOffset":15032,"byteLength":288,"target":34962,"byteStride":12},{"buffer":0,"byteOffset":15320,"byteLength":192,"target":34962,"byteStride":8},{"buffer":0,"byteOffset":15512,"byteLength":72,"target":34963}],"buffers":[{"byteLength":15584,"uri":"data:application/octet-stream;base64,"}],"accessors":[{"bufferView":0,"componentType":5126,"count":424,"max":[0.25001248717308044,0.84375,0.25],"min":[-0.25,6.249999962015806e-10,-0.25],"type":"VEC3"},{"bufferView":1,"componentType":5126,"count":424,"max":[1,1,1],"min":[-1,-1,-1],"type":"VEC3"},{"bufferView":2,"componentType":5126,"count":424,"max":[0.9671730995178223,0.96875],"min":[0,0],"type":"VEC2"},{"bufferView":3,"componentType":5123,"count":588,"max":[423],"min":[0],"type":"SCALAR"},{"bufferView":4,"componentType":5126,"count":24,"max":[0.3125,0.18125000596046448,0.05624999850988388],"min":[0.1875,0.06875000149011612,-0.05624999850988388],"type":"VEC3"},{"bufferView":5,"componentType":5126,"count":24,"max":[1,1,1],"min":[-1,-1,-1],"type":"VEC3"},{"bufferView":6,"componentType":5126,"count":24,"max":[0.609375,0.953125],"min":[0,0],"type":"VEC2"},{"bufferView":7,"componentType":5123,"count":36,"max":[23],"min":[0],"type":"SCALAR"}],"materials":[{"pbrMetallicRoughness":{"metallicFactor":0,"roughnessFactor":1,"baseColorTexture":{"index":0}},"alphaMode":"MASK","alphaCutoff":0.05,"doubleSided":true}],"textures":[{"sampler":0,"source":0,"name":"texture"}],"samplers":[{"magFilter":9728,"minFilter":9728,"wrapS":33071,"wrapT":33071}],"images":[{"mimeType":"image/png","uri":"data:image/png;base64,"}],"meshes":[{"primitives":[{"mode":4,"attributes":{"POSITION":0,"NORMAL":1,"TEXCOORD_0":2},"indices":3,"material":0}]},{"primitives":[{"mode":4,"attributes":{"POSITION":4,"NORMAL":5,"TEXCOORD_0":6},"indices":7,"material":0}]}]}